<?xml version="1.0" standalone="no"?>
<!DOCTYPE svg PUBLIC "-//W3C//DTD SVG 20010904//EN"
 "http://www.w3.org/TR/2001/REC-SVG-20010904/DTD/svg10.dtd">
<svg version="1.0" xmlns="http://www.w3.org/2000/svg"
 width="700.000000pt" height="700.000000pt" viewBox="0 0 700.000000 700.000000"
 preserveAspectRatio="xMidYMid meet">
<metadata>
Created by potrace 1.11, written by Peter Selinger 2001-2013
</metadata>
<g transform="translate(0.000000,700.000000) scale(0.100000,-0.100000)"
fill="#000000" stroke="none">
<path d="M3567 6965 c-59 -42 -280 -212 -311 -240 -13 -11 -52 -45 -87 -75
-35 -30 -70 -62 -79 -70 -9 -8 -34 -30 -55 -49 -64 -54 -301 -289 -422 -419
-97 -103 -173 -190 -329 -377 -72 -86 -253 -325 -318 -420 -38 -55 -83 -120
-101 -145 -43 -59 -223 -349 -265 -425 -18 -33 -42 -76 -53 -95 -11 -19 -45
-82 -75 -140 -30 -58 -60 -114 -67 -125 -15 -25 -125 -269 -160 -355 -14 -36
-30 -74 -34 -85 -72 -166 -187 -548 -216 -718 -4 -17 -10 -50 -15 -72 -5 -22
-11 -65 -15 -95 -3 -30 -8 -66 -10 -80 -26 -173 -25 -597 1 -728 4 -18 7 -32
8 -32 2 0 92 89 789 774 225 220 520 510 655 643 l247 242 623 -622 c342 -342
625 -624 628 -627 3 -2 326 317 719 710 l714 714 -37 34 c-38 35 -83 78 -367
346 -373 353 -594 589 -751 801 -32 44 -61 82 -64 85 -23 23 -154 238 -199
328 -74 147 -146 342 -167 452 -3 14 -10 45 -15 70 -22 95 -35 241 -33 372 2
154 10 231 43 397 6 29 11 55 11 57 0 2 -33 4 -72 3 -66 0 -77 -3 -121 -34z"/>
<path d="M4851 2753 l-913 -915 -37 35 c-20 19 -57 54 -82 78 -26 24 -122 117
-215 205 -93 89 -197 188 -231 220 -111 106 -226 216 -344 328 -174 167 -322
308 -351 334 l-25 23 -719 -720 c-395 -395 -729 -730 -742 -744 l-23 -25 37
-78 c168 -356 437 -689 757 -937 99 -77 232 -167 247 -167 5 0 10 -3 10 -8 0
-4 9 -12 19 -17 11 -6 68 -35 128 -66 304 -159 628 -254 973 -286 141 -13 463
-7 590 11 154 21 178 26 225 38 22 5 49 12 61 14 46 8 234 68 318 101 760 295
1349 925 1590 1703 19 63 38 126 40 140 3 14 14 69 26 124 18 91 24 121 36
216 3 19 6 123 8 230 3 160 1 211 -14 283 -47 225 -137 413 -303 630 -64 85
-137 168 -146 166 -3 0 -417 -412 -920 -916z"/>
</g>
</svg>
