<?xml version="1.0" encoding="utf-8"?>
<!-- Generator: Adobe Illustrator 22.0.1, SVG Export Plug-In . SVG Version: 6.00 Build 0)  -->
<svg version="1.1" id="Слой_1" xmlns="http://www.w3.org/2000/svg" xmlns:xlink="http://www.w3.org/1999/xlink" x="0px" y="0px"
	 viewBox="0 0 91.6 123.5" style="enable-background:new 0 0 91.6 123.5;" xml:space="preserve">
<style type="text/css">
	.st0{fill:url(#SVGID_1_);}
	.st1{fill:url(#SVGID_2_);}
</style>
<linearGradient id="SVGID_1_" gradientUnits="userSpaceOnUse" x1="11.7076" y1="112.2121" x2="91.7277" y2="73.1837">
	<stop  offset="0" style="stop-color:#6148BF"/>
	<stop  offset="1" style="stop-color:#3F2370"/>
</linearGradient>
<path class="st0" d="M30,70.3l-26,26c7.1,16,23.2,27.2,41.8,27.2c25.3,0,45.8-20.5,45.8-45.8c0-6.6-3.2-12.2-7.9-17.7l-32,32
	L30,70.3z"/>
<linearGradient id="SVGID_2_" gradientUnits="userSpaceOnUse" x1="-8.059" y1="67.5242" x2="66.1675" y2="31.3215">
	<stop  offset="0" style="stop-color:#6148BF"/>
	<stop  offset="1" style="stop-color:#3F2370"/>
</linearGradient>
<path class="st1" d="M30,56.1l21.7,21.7l25-25C61.9,39,42.5,25,49.6,0C24.8,15.9,0,51.1,0,77.7c0,2.6,0.2,5.2,0.7,7.8L30,56.1z"/>
</svg>
