<?xml version="1.0" encoding="utf-8"?>
<!-- Generator: Adobe Illustrator 22.0.1, SVG Export Plug-In . SVG Version: 6.00 Build 0)  -->
<svg version="1.1" id="Слой_1" xmlns="http://www.w3.org/2000/svg" xmlns:xlink="http://www.w3.org/1999/xlink" x="0px" y="0px"
	 viewBox="0 0 92.1 124.3" style="enable-background:new 0 0 92.1 124.3;" xml:space="preserve">
<style type="text/css">
	.st0{fill:#666699;}
	.st1{fill:url(#SVGID_1_);}
	.st2{fill:url(#SVGID_2_);}
	.st3{opacity:0.21;}
	.st4{fill:url(#SVGID_3_);}
	.st5{fill:url(#SVGID_4_);}
	.st6{fill:url(#SVGID_5_);}
	.st7{fill:url(#SVGID_6_);}
</style>
<g>
	<g>
		<g>
			<path class="st0" d="M30.3,70.8l-26,26c7.1,16,23.2,27.2,41.8,27.2c25.3,0,45.8-20.5,45.8-45.8c0-6.6-3.2-12.2-7.9-17.7l-32,32
				L30.3,70.8z"/>
			<linearGradient id="SVGID_1_" gradientUnits="userSpaceOnUse" x1="3.9214" y1="92.2283" x2="92.0972" y2="92.2283">
				<stop  offset="0" style="stop-color:#000000"/>
				<stop  offset="0.9951" style="stop-color:#662D91"/>
			</linearGradient>
			<path class="st1" d="M46,124.3C27.9,124.3,11.4,113.5,4,97l-0.1-0.2L4,96.7l26.2-26.2l21.7,21.7l32-32l0.2,0.2
				c5.5,6.3,8,12,8,17.8C92.1,103.6,71.4,124.3,46,124.3z M4.5,96.9c7.4,16.3,23.6,26.9,41.5,26.9c25.1,0,45.5-20.4,45.5-45.5
				c0-5.7-2.4-11.2-7.7-17.3l-32,32L30.3,71.2L4.5,96.9z"/>
		</g>
		<g>
			<path class="st0" d="M30.3,56.7l21.7,21.7l25-25C62.1,39.5,42.7,25.5,49.8,0.6C25,16.5,0.2,51.6,0.2,78.2c0,2.6,0.2,5.2,0.7,7.8
				L30.3,56.7z"/>
			<linearGradient id="SVGID_2_" gradientUnits="userSpaceOnUse" x1="0" y1="43.2571" x2="77.2642" y2="43.2571">
				<stop  offset="0" style="stop-color:#000000"/>
				<stop  offset="0.9951" style="stop-color:#662D91"/>
			</linearGradient>
			<path class="st2" d="M0.8,86.5L0.7,86C0.2,83.4,0,80.8,0,78.2c0-12.5,5.5-27.8,15.5-43C25,21,37.4,8.3,49.7,0.4L50.3,0l-0.2,0.6
				C43.8,22.8,58.3,36,72.3,48.8c1.6,1.4,3.2,2.9,4.8,4.4l0.2,0.2l-0.2,0.2L51.9,78.7L30.3,57L0.8,86.5z M49.4,1.1
				C20.1,20.2,0.5,56.3,0.5,78.2c0,2.4,0.2,4.8,0.6,7.2l29.2-29.2L51.9,78l24.6-24.6c-1.5-1.4-3.1-2.8-4.6-4.2
				C58.6,37,43.5,23.3,49.4,1.1z"/>
		</g>
	</g>
	<g class="st3">
		<g>
			<linearGradient id="SVGID_3_" gradientUnits="userSpaceOnUse" x1="46.0486" y1="0" x2="46.0486" y2="124.2759">
				<stop  offset="0" style="stop-color:#FFFFFF"/>
				<stop  offset="1" style="stop-color:#000000"/>
			</linearGradient>
			<path class="st4" d="M30.3,70.8l-26,26c7.1,16,23.2,27.2,41.8,27.2c25.3,0,45.8-20.5,45.8-45.8c0-6.6-3.2-12.2-7.9-17.7l-32,32
				L30.3,70.8z"/>
			<linearGradient id="SVGID_4_" gradientUnits="userSpaceOnUse" x1="46.0486" y1="0" x2="46.0486" y2="124.2759">
				<stop  offset="0" style="stop-color:#FFFFFF"/>
				<stop  offset="1" style="stop-color:#000000"/>
			</linearGradient>
			<path class="st5" d="M46,124.3C27.9,124.3,11.4,113.5,4,97l-0.1-0.2L4,96.7l26.2-26.2l21.7,21.7l32-32l0.2,0.2
				c5.5,6.3,8,12,8,17.8C92.1,103.6,71.4,124.3,46,124.3z M4.5,96.9c7.4,16.3,23.6,26.9,41.5,26.9c25.1,0,45.5-20.4,45.5-45.5
				c0-5.7-2.4-11.2-7.7-17.3l-32,32L30.3,71.2L4.5,96.9z"/>
		</g>
		<g>
			<linearGradient id="SVGID_5_" gradientUnits="userSpaceOnUse" x1="46.0486" y1="0" x2="46.0486" y2="124.2759">
				<stop  offset="0" style="stop-color:#FFFFFF"/>
				<stop  offset="1" style="stop-color:#000000"/>
			</linearGradient>
			<path class="st6" d="M30.3,56.7l21.7,21.7l25-25C62.1,39.5,42.7,25.5,49.8,0.6C25,16.5,0.2,51.6,0.2,78.2c0,2.6,0.2,5.2,0.7,7.8
				L30.3,56.7z"/>
			<linearGradient id="SVGID_6_" gradientUnits="userSpaceOnUse" x1="46.0486" y1="0" x2="46.0486" y2="124.2759">
				<stop  offset="0" style="stop-color:#FFFFFF"/>
				<stop  offset="1" style="stop-color:#000000"/>
			</linearGradient>
			<path class="st7" d="M0.8,86.5L0.7,86C0.2,83.4,0,80.8,0,78.2c0-12.5,5.5-27.8,15.5-43C25,21,37.4,8.3,49.7,0.4L50.3,0l-0.2,0.6
				C43.8,22.8,58.3,36,72.3,48.8c1.6,1.4,3.2,2.9,4.8,4.4l0.2,0.2l-0.2,0.2L51.9,78.7L30.3,57L0.8,86.5z M49.4,1.1
				C20.1,20.2,0.5,56.3,0.5,78.2c0,2.4,0.2,4.8,0.6,7.2l29.2-29.2L51.9,78l24.6-24.6c-1.5-1.4-3.1-2.8-4.6-4.2
				C58.6,37,43.5,23.3,49.4,1.1z"/>
		</g>
	</g>
</g>
</svg>
